<?xml version="1.0" standalone="no"?>
<!DOCTYPE svg PUBLIC "-//W3C//DTD SVG 20010904//EN"
 "http://www.w3.org/TR/2001/REC-SVG-20010904/DTD/svg10.dtd">
<svg version="1.0" xmlns="http://www.w3.org/2000/svg"
 width="289.000000pt" height="174.000000pt" viewBox="0 0 289.000000 174.000000"
 preserveAspectRatio="xMidYMid meet">

<g transform="translate(0.000000,174.000000) scale(0.100000,-0.100000)"
fill="#000000" stroke="none">
<path d="M939 1295 c-69 -35 -131 -71 -139 -80 -8 -9 -14 -33 -14 -52 0 -43
32 -73 75 -73 29 0 258 108 292 138 26 23 23 83 -6 110 -36 34 -71 26 -208
-43z"/>
<path d="M292 1314 c-98 -27 -191 -100 -241 -189 -111 -198 -31 -450 174 -551
55 -27 69 -29 170 -29 99 0 115 3 165 27 144 71 230 205 230 357 0 115 -39
208 -117 282 -111 105 -242 141 -381 103z m262 -63 c79 -38 138 -103 174 -187
21 -51 24 -70 20 -149 -3 -72 -10 -100 -30 -140 -93 -179 -310 -250 -488 -160
-65 33 -144 122 -170 193 -18 47 -21 72 -18 142 5 93 30 158 89 224 101 115
280 148 423 77z"/>
<path d="M371 1107 c-23 -54 -61 -190 -61 -219 0 -13 -4 -18 -9 -13 -7 9 -22
83 -47 228 l-6 37 -54 0 c-64 0 -63 1 -38 -131 25 -134 72 -275 97 -291 7 -4
35 -8 64 -8 l51 0 11 48 c5 26 20 93 33 149 12 56 25 100 29 97 4 -2 15 -39
24 -82 9 -42 20 -90 25 -107 5 -16 11 -47 15 -67 l6 -38 54 0 c35 0 59 5 69
15 8 9 29 59 47 113 36 113 35 161 -5 241 -42 83 -45 80 -66 -64 -11 -77 -26
-144 -33 -151 -2 -3 -7 18 -11 45 -7 53 -45 183 -65 219 -10 18 -21 22 -62 22
-49 0 -50 0 -68 -43z"/>
<path d="M1427 1113 c-4 -3 -7 -78 -7 -165 l0 -158 25 0 c24 0 25 2 25 73 0
86 16 117 60 117 40 0 50 -23 50 -114 0 -74 1 -76 25 -76 25 0 25 1 25 90 0
76 -3 93 -20 110 -29 29 -67 35 -106 17 l-34 -17 0 65 c0 56 -2 65 -18 65 -10
0 -22 -3 -25 -7z"/>
<path d="M2767 1113 c-4 -3 -7 -31 -7 -61 0 -48 -2 -53 -17 -47 -60 26 -121 7
-148 -45 -54 -105 53 -227 145 -163 17 12 25 13 28 5 2 -7 12 -12 23 -12 18 0
19 9 19 165 0 153 -1 165 -18 165 -10 0 -22 -3 -25 -7z m-25 -150 c24 -21 25
-99 1 -125 -40 -44 -113 -5 -113 61 0 65 68 104 112 64z"/>
<path d="M2834 1106 c-8 -21 13 -46 32 -39 20 8 13 47 -9 51 -9 2 -20 -4 -23
-12z"/>
<path d="M1744 1081 c-42 -25 -72 -66 -80 -107 -25 -132 95 -223 239 -183 l37
10 0 74 0 75 -61 0 c-52 0 -60 -2 -57 -17 2 -13 13 -18 36 -18 33 0 33 0 30
-45 -3 -44 -4 -45 -40 -48 -106 -9 -172 96 -118 186 25 41 60 54 132 50 42 -2
59 1 63 10 10 26 -6 32 -78 32 -53 0 -80 -5 -103 -19z"/>
<path d="M1077 1053 c-4 -3 -7 -15 -7 -25 0 -10 -7 -18 -15 -18 -8 0 -15 -7
-15 -15 0 -8 7 -15 15 -15 12 0 15 -14 15 -70 0 -102 25 -140 87 -128 31 6 28
36 -4 40 -28 3 -28 4 -31 81 l-3 77 31 0 c20 0 30 5 30 15 0 10 -10 15 -30 15
-25 0 -30 4 -30 25 0 18 -5 25 -18 25 -10 0 -22 -3 -25 -7z"/>
<path d="M862 1010 c-39 -16 -20 -33 39 -34 48 -1 54 -3 57 -23 3 -20 -1 -23
-28 -23 -89 0 -143 -83 -84 -129 32 -25 71 -27 102 -5 12 8 22 10 22 5 0 -6
10 -11 23 -11 22 0 22 2 17 95 -4 69 -9 99 -21 111 -20 19 -95 28 -127 14z
m108 -128 c0 -35 -30 -63 -63 -60 -66 6 -33 78 35 78 20 0 28 -5 28 -18z"/>
<path d="M1263 1005 c-36 -16 -73 -68 -73 -103 0 -41 30 -90 65 -106 56 -27
142 -15 129 18 -4 9 -18 12 -47 9 -60 -7 -92 20 -92 77 0 57 31 83 92 78 47
-3 66 14 33 32 -26 14 -69 12 -107 -5z"/>
<path d="M2267 1009 c-44 -17 -27 -34 31 -31 42 3 52 0 61 -16 13 -24 6 -32
-31 -32 -40 0 -87 -26 -98 -55 -26 -68 56 -123 118 -79 12 8 22 10 22 5 0 -6
12 -11 26 -11 l26 0 -4 90 c-2 75 -6 93 -24 110 -25 25 -87 34 -127 19z m103
-133 c0 -35 -27 -58 -64 -54 -25 2 -31 7 -31 28 0 27 33 50 73 50 17 0 22 -6
22 -24z"/>
<path d="M2527 1000 c-22 -18 -27 -19 -27 -6 0 9 -8 16 -20 16 -19 0 -20 -7
-20 -110 l0 -110 25 0 c24 0 25 2 25 75 0 81 18 115 61 115 14 0 19 5 17 17
-5 26 -31 27 -61 3z"/>
<path d="M1980 929 c0 -80 9 -113 39 -136 23 -18 73 -16 101 4 17 12 25 13 28
5 2 -7 12 -12 23 -12 18 0 19 8 19 110 l0 110 -25 0 c-24 0 -25 -2 -25 -75 0
-81 -18 -115 -59 -115 -39 0 -51 26 -51 111 0 78 0 79 -25 79 -25 0 -25 -1
-25 -81z"/>
</g>
</svg>
