<?xml version="1.0" standalone="no"?>
<!DOCTYPE svg PUBLIC "-//W3C//DTD SVG 20010904//EN"
 "http://www.w3.org/TR/2001/REC-SVG-20010904/DTD/svg10.dtd">
<svg version="1.0" xmlns="http://www.w3.org/2000/svg"
 width="300.000000pt" height="225.000000pt" viewBox="0 0 300.000000 225.000000"
 preserveAspectRatio="xMidYMid meet">

<g transform="translate(0.000000,225.000000) scale(0.100000,-0.100000)"
fill="#000000" stroke="none">
<path d="M380 1125 l0 -375 1125 0 1125 0 0 375 0 375 -1125 0 -1125 0 0 -375z
m895 300 c29 -28 31 -42 9 -73 -18 -26 -183 -112 -216 -112 -50 0 -78 69 -40
102 21 20 192 107 210 107 7 1 24 -10 37 -24z m-420 -40 c184 -89 215 -337 59
-474 -186 -163 -477 -30 -476 218 1 218 221 353 417 256z m655 -165 l0 -40 44
6 c38 6 45 3 60 -17 22 -32 23 -149 1 -149 -11 0 -15 12 -15 51 0 63 -13 89
-45 89 -32 0 -45 -26 -45 -89 0 -39 -4 -51 -15 -51 -12 0 -15 20 -15 120 0
100 3 120 15 120 11 0 15 -11 15 -40z m990 -74 c0 -115 -7 -139 -35 -116 -9 7
-15 8 -20 0 -11 -18 -68 -11 -92 12 -33 31 -32 90 3 125 21 21 32 25 65 20
l39 -5 0 39 c0 32 3 39 20 39 19 0 20 -7 20 -114z m27 92 c-3 -8 -6 -5 -6 6
-1 11 2 17 5 13 3 -3 4 -12 1 -19z m53 5 c0 -7 -9 -13 -20 -13 -11 0 -20 6
-20 14 0 9 9 14 20 13 11 -1 20 -7 20 -14z m-732 -12 c4 -11 -4 -13 -37 -7
-29 4 -50 2 -71 -9 -86 -45 -57 -165 40 -165 39 0 40 1 40 35 0 31 -3 35 -25
35 -14 0 -25 5 -25 10 0 6 20 10 45 10 l45 0 0 -54 c0 -61 -5 -66 -78 -66 -64
0 -108 28 -123 78 -26 88 31 154 130 150 36 -2 56 -8 59 -17z m-588 -26 c0 -8
9 -15 20 -15 11 0 20 -7 20 -15 0 -8 -9 -15 -20 -15 -18 0 -20 -7 -20 -55 0
-52 5 -61 33 -56 4 0 7 -6 7 -14 0 -10 -10 -15 -30 -15 -37 0 -50 23 -50 88 0
38 -4 51 -17 57 -17 6 -17 7 0 19 9 7 17 18 17 25 0 6 9 11 20 11 11 0 20 -7
20 -15z m-100 -35 c16 -16 20 -33 20 -83 l0 -63 -57 -2 c-62 -2 -83 9 -83 43
0 28 26 51 68 60 17 3 32 10 32 15 0 18 -29 30 -59 24 -19 -4 -31 -2 -31 4 0
28 83 29 110 2z m288 3 c2 -9 -9 -13 -35 -13 -47 0 -63 -14 -63 -56 0 -39 22
-58 66 -57 23 1 34 -4 34 -13 0 -10 -13 -14 -45 -14 -89 0 -126 81 -65 141 24
25 37 30 67 27 20 -2 38 -9 41 -15z m472 -40 c0 -71 9 -86 46 -81 28 3 29 5
34 68 4 51 9 66 23 68 15 3 17 -6 17 -82 0 -70 -3 -86 -15 -86 -8 0 -15 5 -15
10 0 7 -6 7 -19 0 -29 -15 -67 -12 -85 6 -22 22 -23 154 -1 154 12 0 15 -13
15 -57z m265 43 c15 -11 20 -30 23 -83 l4 -69 -60 -1 c-68 -2 -85 9 -80 54 2
23 10 30 48 43 58 19 58 19 35 36 -12 9 -30 12 -47 8 -16 -3 -28 -1 -28 4 0
24 76 29 105 8z m85 4 c0 -7 6 -7 19 0 27 14 41 13 41 -5 0 -8 -6 -15 -14 -15
-23 0 -34 -23 -38 -80 -2 -42 -7 -55 -21 -58 -15 -3 -17 6 -17 82 0 70 3 86
15 86 8 0 15 -5 15 -10z"/>
<path d="M637 1376 c-102 -37 -177 -144 -177 -253 0 -93 87 -214 176 -244 158
-53 331 55 351 220 22 186 -172 340 -350 277z m174 -125 c6 -14 18 -56 27 -93
9 -38 19 -68 22 -68 8 0 30 115 30 154 0 55 39 15 60 -62 10 -37 8 -51 -17
-125 l-28 -82 -47 -3 c-52 -3 -47 -12 -73 113 -9 44 -21 84 -25 88 -7 8 -50
-154 -50 -189 0 -10 -13 -14 -49 -14 -48 0 -48 1 -64 43 -23 60 -46 154 -54
215 l-6 52 40 0 40 0 18 -102 c17 -97 19 -101 28 -68 37 139 50 169 71 172 41
6 67 -4 77 -31z"/>
<path d="M2374 1135 c-24 -36 -3 -85 35 -85 35 0 51 17 51 55 0 17 -5 36 -12
43 -20 20 -56 14 -74 -13z"/>
<path d="M1080 1084 c-11 -12 -10 -18 4 -32 20 -20 49 -6 54 27 3 17 -2 21
-21 21 -14 0 -30 -7 -37 -16z"/>
<path d="M2112 1088 c-28 -28 2 -57 39 -38 28 15 25 50 -4 50 -13 0 -28 -5
-35 -12z"/>
</g>
</svg>
